# xmcd
#
# Track frame offsets: 
#        167
#        13935
#        40882
#        54462
#        82030
#        107742
#        122430
#        150257
#        169322
#        195122
#        222150
#        239822
#        265092
#
# Disc length: 3760 seconds
#
# Revision: 1
# Processed by: cddbd v1.5.2PL0 Copyright (c) Steve Scherf et al.
# Submitted via: ExactAudioCopyFreeDBPlugin 1.0
#
DISCID=a80eae0d
DTITLE=John "So Blue" Weston and Blues Force - So Doggone Blue
DYEAR=1998
DGENRE=Blues
TTITLE0=Leaving Home
TTITLE1=Because of Love
TTITLE2=Back to the Country
TTITLE3=So Doggone Blue
TTITLE4=Coloration
TTITLE5=I'd Rather Leave
TTITLE6=Stuck With the Blues
TTITLE7=Squeeze Play
TTITLE8=So Much in Love
TTITLE9=You Didn't Fool Me
TTITLE10=Younger Days
TTITLE11=Too Jealous
TTITLE12=Blue and Lonesome
EXTD=YEAR: 1998
EXTT0=
EXTT1=
EXTT2=
EXTT3=
EXTT4=
EXTT5=
EXTT6=
EXTT7=
EXTT8=
EXTT9=
EXTT10=
EXTT11=
EXTT12=
PLAYORDER=
